#!OML:ASF E:\Mandelcareful walks\Project 1\Capture day 1\Session 1\Subject1.ASF
:FULLY-SPECIFIED
:DEGREES
898
root -5.74705 14.7441 -5.90895 -165.777 -29.4977 167.968
lowerback 41.5644 -3.37528 3.14244
upperback 6.81044 -4.78646 0.998089
thorax -12.3399 -3.04834 1.77637
lowerneck -28.1223 -3.91811 -10.3355
upperneck 14.5537 -1.30119 -1.51305
head 9.20274 -1.52251 0.86606
rclavicle -7.55382e-014 4.92986e-014
rhumerus -10.7986 3.21693 -75.5868
rradius 62.672
rwrist -14.2846
rhand -11.9243 -25.4083
rfingers 7.12502
rthumb 14.1299 -54.9078
lclavicle -7.55382e-014 4.92986e-014
lhumerus -3.4555 -12.4353 76.95
lradius 66.6687
lwrist 25.4356
lhand -26.5641 -20.3802
lfingers 7.12502
lthumb 0.000962551 9.59951
rfemur -50.9839 -10.2064 15.5387
rtibia 67.0293
rfoot -22.6713 -11.9319
rtoes 4.88881
lfemur -41.3861 26.7152 -21.6091
ltibia 83.1548
lfoot -13.3976 -1.61548
ltoes -15.0755
899
root -5.85173 14.7416 -5.94364 -165.477 -29.2003 167.672
lowerback 41.9251 -3.09694 2.66378
upperback 6.6797 -4.60912 1.08979
thorax -12.5781 -2.94817 2.06807
lowerneck -27.6299 -5.14651 -11.3697
upperneck 13.5948 -2.92627 -0.383083
head 8.87871 -2.16715 1.17755
rclavicle -3.18055e-015 -2.38542e-015
rhumerus -10.1663 3.76227 -75.3982
rradius 62.5165
rwrist -14.3982
rhand -11.883 -25.5049
rfingers 7.12502
rthumb 14.1698 -55.0016
lclavicle -3.18055e-015 -2.38542e-015
lhumerus -3.92204 -12.2046 76.7385
lradius 65.8435
lwrist 24.7845
lhand -25.5056 -19.9788
lfingers 7.12502
lthumb 1.02324 9.9985
rfemur -50.9219 -9.9541 14.826
rtibia 67.1337
rfoot -22.958 -12.0964
rtoes 5.03766
lfemur -41.4963 26.3957 -20.0765
ltibia 80.1932
lfoot -14.4131 0.142847
ltoes -13.634
900
root -5.96594 14.758 -5.9789 -165.178 -28.8703 167.536
lowerback 42.0014 -2.85968 2.31795
upperback 6.63559 -4.44919 1.1371
thorax -12.637 -2.8634 2.23104
lowerneck -27.2924 -6.01984 -11.7086
upperneck 12.7419 -4.18576 0.165137
head 8.6058 -2.68697 1.23462
rclavicle 6.99722e-014 -4.05521e-014
rhumerus -9.37486 4.24616 -75.4054
rradius 62.258
rwrist -14.6955
rhand -12.7759 -26.0836
rfingers 7.12502
rthumb 13.3092 -55.6386
lclavicle 6.99722e-014 -4.05521e-014
lhumerus -4.44057 -11.943 76.4536
lradius 64.9266
lwrist 24.1423
lhand -24.4282 -19.4716
lfingers 7.12502
lthumb 2.0638 10.4981
rfemur -50.8147 -9.77607 14.232
rtibia 67.1141
rfoot -23.462 -11.9036
rtoes 5.78854
lfemur -41.3119 25.8781 -18.578
ltibia 76.4851
lfoot -15.1934 2.44377
ltoes -14.1157
901
root -6.0937 14.7948 -6.02036 -165.059 -28.2873 167.346
lowerback 42.1018 -2.57874 1.88924
upperback 6.68093 -4.3124 1.10458
thorax -12.6029 -2.79825 2.35804
lowerneck -26.9567 -6.66461 -11.9138
upperneck 11.8321 -5.14991 0.52367
head 8.30081 -3.09171 1.25446
rclavicle 5.88403e-014 -5.56597e-014
rhumerus -8.43075 4.68164 -75.3801
rradius 61.9122
rwrist -15.0466
rhand -13.6188 -26.4953
rfingers 7.12502
rthumb 12.4966 -56.1017
lclavicle 5.88403e-014 -5.56597e-014
lhumerus -5.03407 -11.6011 76.2087
lradius 63.8609
lwrist 23.5556
lhand -23.9192 -19.1619
lfingers 7.12502
lthumb 2.55537 10.8025
rfemur -50.343 -9.54485 13.4888
rtibia 66.9794
rfoot -24.2184 -11.4316
rtoes 7.69316
lfemur -40.424 25.3814 -17.2487
ltibia 72.1101
lfoot -15.7394 5.42872
ltoes -15.1411
902
root -6.2276 14.8296 -6.05624 -164.745 -27.5364 166.962
lowerback 41.9601 -2.22848 1.42277
upperback 6.7922 -4.131 0.923048
thorax -12.4274 -2.7138 2.30768
lowerneck -26.5898 -7.32176 -12.5859
upperneck 10.9132 -6.05767 1.54786
head 8.0281 -3.41787 1.58591
rclavicle 6.44062e-014 -3.49861e-014
rhumerus -7.50229 4.65183 -75.3986
rradius 61.6971
rwrist -14.757
rhand -13.4046 -26.4391
rfingers 7.12502
rthumb 12.7032 -56.0328
lclavicle 6.44062e-014 -3.49861e-014
lhumerus -5.50707 -11.5823 75.9251
lradius 62.7027
lwrist 23.0118
lhand -23.9979 -18.9013
lfingers 7.12502
lthumb 2.47937 11.0641
rfemur -50.0931 -9.35858 12.5333
rtibia 66.8382
rfoot -24.6879 -10.957
rtoes 9.47457
lfemur -39.3445 24.6745 -16.1809
ltibia 67.2456
lfoot -15.8674 8.08371
ltoes -12.6136
903
root -6.36521 14.8524 -6.0809 -164.147 -26.7984 166.594
lowerback 41.3877 -1.89295 1.04262
upperback 6.85367 -3.89437 0.712307
thorax -12.1799 -2.59284 2.14
lowerneck -26.3577 -7.88811 -13.1833
upperneck 10.515 -6.79012 2.3757
head 7.95281 -3.69206 1.85535
rclavicle -4.77083e-015 -4.05521e-014
rhumerus -6.91106 4.64906 -75.3124
rradius 61.7985
rwrist -14.5386
rhand -14.0965 -26.6688
rfingers 7.12502
rthumb 12.036 -56.3027
lclavicle -4.77083e-015 -4.05521e-014
lhumerus -6.13936 -11.6251 75.8004
lradius 61.5473
lwrist 22.1918
lhand -23.9587 -18.4792
lfingers 7.12502
lthumb 2.51724 11.4857
rfemur -50.3384 -9.31395 11.6563
rtibia 66.7473
rfoot -24.7084 -10.8315
rtoes 8.04032
lfemur -38.4215 23.6084 -15.124
ltibia 62.1352
lfoot -15.0481 9.84712
ltoes -10.5939
